# xmcd CD database file
#
# Track frame offsets:
#	150
#	16367
#	33860
#	50612
#	62842
#	77220
#	83973
#	102512
#	115509
#	133638
#	147868
#
# Disc length: 2166 seconds
#
# Revision: 5
# Processed by: cddbd v1.5.2PL0 Copyright (c) Steve Scherf et al.
# Submitted via: CDex 1.70beta2
#
DISCID=8f08740b
DTITLE=Fabián - Adiós, Tormenta.
DYEAR=2009
DGENRE=Country
TTITLE0=Palabras Raras
TTITLE1=Horas De Luz
TTITLE2=La Siesta De Los Perros
TTITLE3=Pequeño Decimal
TTITLE4=Todo Lo Demás
TTITLE5=Adiós, Tormenta Pt. 2 (Salí A Volver)
TTITLE6=Lugares
TTITLE7=Atardeceres
TTITLE8=Un Pequeño Pájaro Que Canta
TTITLE9=No Estás Echa Para Mí
TTITLE10=Adiós, Tormenta Pt1
EXTD=YEAR: 2009
EXTT0=
EXTT1=
EXTT2=
EXTT3=
EXTT4=
EXTT5=
EXTT6=
EXTT7=
EXTT8=
EXTT9=
EXTT10=
PLAYORDER=
